<svg width="16" height="17" viewBox="0 0 16 17" fill="none" xmlns="http://www.w3.org/2000/svg">
<path d="M4.85312 9.85313L8 6.70625L11.1469 9.85313C11.3422 10.0484 11.6588 10.0484 11.8538 9.85313C12.0488 9.65781 12.0491 9.34125 11.8538 9.14625L8.35375 5.64625C8.25625 5.55 8.12813 5.5 8 5.5C7.87187 5.5 7.74413 5.54881 7.64656 5.6465L4.14656 9.1465C3.95125 9.34181 3.95125 9.65837 4.14656 9.85337C4.34188 10.0484 4.65937 10.05 4.85312 9.85313ZM8 16.5C12.4187 16.5 16 12.9187 16 8.5C16 4.08125 12.4187 0.5 8 0.5C3.58125 0.5 0 4.08125 0 8.5C0 12.9187 3.58125 16.5 8 16.5ZM8 1.5C11.8594 1.5 15 4.64062 15 8.5C15 12.3594 11.8594 15.5 8 15.5C4.14062 15.5 1 12.3594 1 8.5C1 4.64062 4.14063 1.5 8 1.5Z" fill="black"/>
</svg>
